<svg xmlns="http://www.w3.org/2000/svg" xmlns:xlink="http://www.w3.org/1999/xlink" viewBox="0 0 274.42 298.82"><defs><style>.cls-1{fill:url(#linear-gradient);}.cls-2{fill:url(#linear-gradient-2);}.cls-3{fill:url(#linear-gradient-3);}.cls-4{fill:url(#linear-gradient-4);}.cls-5{fill:url(#linear-gradient-5);}.cls-6{fill:url(#linear-gradient-6);}.cls-7{fill:url(#linear-gradient-7);}.cls-8{fill:url(#linear-gradient-8);}.cls-9{fill:#a8a8a8;}.cls-10{fill:#888a8c;}.cls-11{fill:url(#linear-gradient-9);}.cls-12{fill:url(#linear-gradient-10);}.cls-13{fill:#707070;opacity:0.6;}.cls-14{fill:url(#linear-gradient-11);}.cls-15{fill:#000002;}.cls-16{fill:#000004;}.cls-17{fill:url(#linear-gradient-12);}.cls-18{fill:url(#linear-gradient-13);}.cls-19{fill:url(#linear-gradient-14);}.cls-20{fill:url(#linear-gradient-15);}.cls-21{fill:url(#linear-gradient-16);}.cls-22{fill:url(#linear-gradient-17);}.cls-23{fill:url(#linear-gradient-18);}.cls-24{fill:url(#linear-gradient-19);}.cls-25{fill:url(#linear-gradient-20);}.cls-26{fill:url(#linear-gradient-21);}</style><linearGradient id="linear-gradient" x1="197.81" y1="71.43" x2="228.56" y2="71.43" gradientTransform="translate(350.39 220.85) rotate(180)" gradientUnits="userSpaceOnUse"><stop offset="0" stop-color="#625f5f"/><stop offset="0.01" stop-color="#6a6767"/><stop offset="0.1" stop-color="#979595"/><stop offset="0.19" stop-color="#bcbbbb"/><stop offset="0.27" stop-color="#d9d8d8"/><stop offset="0.36" stop-color="#ededed"/><stop offset="0.44" stop-color="#fafafa"/><stop offset="0.52" stop-color="#fefefe"/><stop offset="0.63" stop-color="#fafafa"/><stop offset="0.76" stop-color="#ededee"/><stop offset="0.88" stop-color="#d8d9da"/><stop offset="1" stop-color="#bdbec0"/></linearGradient><linearGradient id="linear-gradient-2" x1="158.6" y1="27.09" x2="178.64" y2="27.09" gradientTransform="translate(350.39 220.85) rotate(180)" gradientUnits="userSpaceOnUse"><stop offset="0" stop-color="#787575"/><stop offset="0.49" stop-color="#e8e7e7"/><stop offset="0.56" stop-color="#e2e1e1"/><stop offset="0.66" stop-color="#d0cfcf"/><stop offset="0.77" stop-color="#b3b1b1"/><stop offset="0.89" stop-color="#8b8888"/><stop offset="1" stop-color="#625f5f"/></linearGradient><linearGradient id="linear-gradient-3" x1="159.4" y1="18.53" x2="177.83" y2="18.53" gradientTransform="translate(350.39 220.85) rotate(180)" gradientUnits="userSpaceOnUse"><stop offset="0" stop-color="#949292"/><stop offset="0.49" stop-color="#e8e7e7"/><stop offset="0.59" stop-color="#e2e1e1"/><stop offset="0.73" stop-color="#d0cfcf"/><stop offset="0.89" stop-color="#b3b1b1"/><stop offset="1" stop-color="#9b9999"/></linearGradient><linearGradient id="linear-gradient-4" x1="158.6" y1="21.13" x2="178.64" y2="21.13" gradientTransform="translate(350.39 220.85) rotate(180)" gradientUnits="userSpaceOnUse"><stop offset="0" stop-color="#989696"/><stop offset="0.49" stop-color="#e8e7e7"/></linearGradient><linearGradient id="linear-gradient-5" x1="119.03" y1="84.76" x2="118.06" y2="84.76" gradientTransform="translate(350.39 220.85) rotate(180)" gradientUnits="userSpaceOnUse"><stop offset="0" stop-color="#625f5f"/><stop offset="0.02" stop-color="#6c6a6a"/><stop offset="0.09" stop-color="#858485"/><stop offset="0.17" stop-color="#9a999b"/><stop offset="0.27" stop-color="#aaaaac"/><stop offset="0.38" stop-color="#b5b6b7"/><stop offset="0.55" stop-color="#bbbcbe"/><stop offset="1" stop-color="#bdbec0"/></linearGradient><linearGradient id="linear-gradient-6" x1="148.88" y1="76.13" x2="147.91" y2="76.13" xlink:href="#linear-gradient-5"/><linearGradient id="linear-gradient-7" x1="175.93" y1="71.43" x2="174.96" y2="71.43" xlink:href="#linear-gradient-5"/><linearGradient id="linear-gradient-8" x1="199.17" y1="60.67" x2="79.6" y2="60.67" xlink:href="#linear-gradient-5"/><linearGradient id="linear-gradient-9" x1="199.17" y1="58.98" x2="79.6" y2="58.98" gradientTransform="translate(350.39 220.85) rotate(180)" gradientUnits="userSpaceOnUse"><stop offset="0" stop-color="#bdbec0"/><stop offset="0.05" stop-color="#cacbcd"/><stop offset="0.15" stop-color="#dbdcdc"/><stop offset="0.26" stop-color="#e7e7e8"/><stop offset="0.43" stop-color="#eee"/><stop offset="0.86" stop-color="#f0f0f0"/><stop offset="0.93" stop-color="#eee"/><stop offset="0.96" stop-color="#e7e8e8"/><stop offset="0.98" stop-color="#dcdcdd"/><stop offset="0.99" stop-color="#cbcccd"/><stop offset="1" stop-color="#bdbec0"/></linearGradient><linearGradient id="linear-gradient-10" x1="206.64" y1="197.51" x2="162.72" y2="197.51" xlink:href="#linear-gradient-5"/><linearGradient id="linear-gradient-11" x1="202.35" y1="197.51" x2="162.72" y2="197.51" xlink:href="#linear-gradient-9"/><linearGradient id="linear-gradient-12" x1="-2342.22" y1="27.09" x2="-2322.19" y2="27.09" gradientTransform="matrix(1, 0, 0, -1, 2424.85, 220.85)" xlink:href="#linear-gradient-2"/><linearGradient id="linear-gradient-13" x1="-2341.42" y1="18.53" x2="-2322.99" y2="18.53" gradientTransform="matrix(1, 0, 0, -1, 2424.85, 220.85)" xlink:href="#linear-gradient-3"/><linearGradient id="linear-gradient-14" x1="-2342.22" y1="21.13" x2="-2322.19" y2="21.13" gradientTransform="matrix(1, 0, 0, -1, 2424.85, 220.85)" xlink:href="#linear-gradient-4"/><linearGradient id="linear-gradient-15" x1="-2381.79" y1="84.76" x2="-2382.76" y2="84.76" gradientTransform="matrix(1, 0, 0, -1, 2424.85, 220.85)" xlink:href="#linear-gradient-5"/><linearGradient id="linear-gradient-16" x1="-2351.94" y1="76.13" x2="-2352.91" y2="76.13" gradientTransform="matrix(1, 0, 0, -1, 2424.85, 220.85)" xlink:href="#linear-gradient-5"/><linearGradient id="linear-gradient-17" x1="-2324.9" y1="71.43" x2="-2325.87" y2="71.43" gradientTransform="matrix(1, 0, 0, -1, 2424.85, 220.85)" xlink:href="#linear-gradient-5"/><linearGradient id="linear-gradient-18" x1="-2301.65" y1="60.67" x2="-2421.22" y2="60.67" gradientTransform="matrix(1, 0, 0, -1, 2424.85, 220.85)" xlink:href="#linear-gradient-5"/><linearGradient id="linear-gradient-19" x1="-2301.65" y1="58.98" x2="-2421.22" y2="58.98" gradientTransform="matrix(1, 0, 0, -1, 2424.85, 220.85)" xlink:href="#linear-gradient-9"/><linearGradient id="linear-gradient-20" x1="-2294.18" y1="197.51" x2="-2338.1" y2="197.51" gradientTransform="matrix(1, 0, 0, -1, 2424.85, 220.85)" xlink:href="#linear-gradient-5"/><linearGradient id="linear-gradient-21" x1="-2298.47" y1="197.51" x2="-2338.1" y2="197.51" gradientTransform="matrix(1, 0, 0, -1, 2424.85, 220.85)" xlink:href="#linear-gradient-9"/></defs><g id="Layer_2" data-name="Layer 2"><g id="Objects"><path class="cls-1" d="M135.27,298.82h3.88c.53,0,13.44-6.55,13.44-34.13v-176c0-8.57-1.53-29.85-4.33-47.49s-8.33-39.09-8.74-40.16S137.87,0,137.21,0h0c-.66,0-1.9,0-2.31,1.07S129,23.58,126.16,41.23s-4.33,38.92-4.33,47.49v176C121.83,292.27,134.73,298.82,135.27,298.82Z"/><path class="cls-2" d="M172.56,201.3v2c.43.06,1.3.17,1.67,3,.27,2.09,6.31,1.74,7.55,1.74s7.27.35,7.54-1.74c.37-2.85,1.24-3,1.67-3v-2l.8,0v-3.14s-1.29-.18-1.29-1.29-.19-9.53-1.06-12.31a14.89,14.89,0,0,0-2.65-5.07,44,44,0,0,0-5,0,44,44,0,0,0-5,0,14.64,14.64,0,0,0-2.66,5.07c-.87,2.78-1.05,11.19-1.05,12.31s-1.3,1.29-1.3,1.29v3.14Z"/><rect class="cls-3" x="172.56" y="201.3" width="18.43" height="2.04"/><rect class="cls-4" x="171.76" y="198.14" width="20.04" height="3.14"/><path class="cls-5" d="M231.37,132.63a.5.5,0,0,1,.5-.49h0a.49.49,0,0,1,.49.49v6.91a.49.49,0,0,1-.49.49h0a.5.5,0,0,1-.5-.49Z"/><path class="cls-6" d="M201.52,141.26a.5.5,0,0,1,.5-.49h0a.49.49,0,0,1,.49.49v6.9a.49.49,0,0,1-.49.5h0a.5.5,0,0,1-.5-.5Z"/><path class="cls-7" d="M174.48,146a.5.5,0,0,1,.49-.5h0a.5.5,0,0,1,.5.5v6.9a.5.5,0,0,1-.5.5h0a.49.49,0,0,1-.49-.5Z"/><path class="cls-8" d="M152.59,197.9c5.4-2.81,109.79-54.59,113.25-56.4s8.58-7.1,8.58-13.36v-5.69s-26.22,9.32-35,12.45-33.93,10.41-49.15,14.51c-6.8,1.84-16.82,1.84-22.26,1.84H152.59Z"/><path class="cls-9" d="M165.83,154.58c5.71,0,16.22,0,23.35-1.92,16-4.31,42.37-11.93,51.54-15.22,7.32-2.63,26.34-9.39,33.7-12v-3s-26.22,9.32-35,12.45-33.93,10.41-49.15,14.51c-6.8,1.84-16.82,1.84-22.26,1.84H152.59v3.33Z"/><polygon class="cls-10" points="267.57 127.87 267.57 131.19 246.71 138.94 246.71 135.3 267.57 127.87"/><path class="cls-11" d="M265.84,141.5c3.46-1.82,8.58-7.1,8.58-13.36v-2.31c0,6.27-5.12,11.54-8.58,13.36S158,192.78,152.59,195.59v2.31C158,195.09,262.38,143.31,265.84,141.5Z"/><path class="cls-12" d="M148.26,41.23S172,27.46,178.44,22.76s9.23-7.75,9.23-10.89V5.44L143.75,18.28Z"/><path class="cls-13" d="M184.32,8.06q.23-.9.45-1.77l-41,12,1.57,8c7.18-2.32,22.72-7.43,28-9.76C180.27,13.4,183.54,11.09,184.32,8.06Z"/><path class="cls-14" d="M186.89,11.09c0,3.13-2.8,6.18-9.24,10.88-5.84,4.27-26,16-29.61,18.15l.22,1.11S172,27.46,178.44,22.76s9.23-7.75,9.23-10.89V5.44l-.78.23Z"/><path class="cls-15" d="M137.21,287.49V291a10.77,10.77,0,0,0,7.69-3.69v-3.5A10.77,10.77,0,0,1,137.21,287.49Z"/><path class="cls-15" d="M146.15,285.83a21.65,21.65,0,0,0,1.55-2.28v-3.5a21.65,21.65,0,0,1-1.55,2.28Z"/><path class="cls-15" d="M150.05,278.53V275c-.36,1-.75,1.92-1.17,2.81v3.5C149.3,280.45,149.69,279.51,150.05,278.53Z"/><path class="cls-16" d="M149.86,250.24a.87.87,0,0,1,.87-.87h0a.87.87,0,0,1,.87.87v1.21a.87.87,0,0,1-.87.87h0a.87.87,0,0,1-.87-.87Z"/><path class="cls-16" d="M149.86,245.72a.87.87,0,0,1,.87-.87h0a.87.87,0,0,1,.87.87v1.2a.87.87,0,0,1-.87.87h0a.87.87,0,0,1-.87-.87Z"/><path class="cls-16" d="M149.86,241.19a.87.87,0,0,1,.87-.87h0a.87.87,0,0,1,.87.87v1.2a.87.87,0,0,1-.87.88h0a.87.87,0,0,1-.87-.88Z"/><path class="cls-16" d="M149.86,236.66a.87.87,0,0,1,.87-.87h0a.87.87,0,0,1,.87.87v1.21a.87.87,0,0,1-.87.87h0a.87.87,0,0,1-.87-.87Z"/><path class="cls-16" d="M149.86,232.14a.87.87,0,0,1,.87-.87h0a.87.87,0,0,1,.87.87v1.2a.87.87,0,0,1-.87.87h0a.87.87,0,0,1-.87-.87Z"/><path class="cls-16" d="M149.86,227.61a.87.87,0,0,1,.87-.87h0a.87.87,0,0,1,.87.87v1.21a.87.87,0,0,1-.87.87h0a.87.87,0,0,1-.87-.87Z"/><path class="cls-16" d="M149.86,223.09a.87.87,0,0,1,.87-.88h0a.87.87,0,0,1,.87.88v1.2a.87.87,0,0,1-.87.87h0a.87.87,0,0,1-.87-.87Z"/><path class="cls-16" d="M149.86,218.56a.87.87,0,0,1,.87-.87h0a.87.87,0,0,1,.87.87v1.2a.87.87,0,0,1-.87.88h0a.87.87,0,0,1-.87-.88Z"/><path class="cls-16" d="M149.86,214a.87.87,0,0,1,.87-.87h0a.87.87,0,0,1,.87.87v1.21a.87.87,0,0,1-.87.87h0a.87.87,0,0,1-.87-.87Z"/><path class="cls-16" d="M149.86,209.51a.87.87,0,0,1,.87-.87h0a.87.87,0,0,1,.87.87v1.2a.87.87,0,0,1-.87.87h0a.87.87,0,0,1-.87-.87Z"/><path class="cls-16" d="M149.86,205a.87.87,0,0,1,.87-.87h0a.87.87,0,0,1,.87.87v1.21a.87.87,0,0,1-.87.87h0a.87.87,0,0,1-.87-.87Z"/><path class="cls-16" d="M149.86,200.46a.87.87,0,0,1,.87-.88h0a.87.87,0,0,1,.87.88v1.2a.87.87,0,0,1-.87.87h0a.87.87,0,0,1-.87-.87Z"/><path class="cls-16" d="M149.86,195.93a.87.87,0,0,1,.87-.87h0a.87.87,0,0,1,.87.87v1.2a.87.87,0,0,1-.87.87h0a.87.87,0,0,1-.87-.87Z"/><path class="cls-16" d="M149.86,191.4a.87.87,0,0,1,.87-.87h0a.87.87,0,0,1,.87.87v1.21a.87.87,0,0,1-.87.87h0a.87.87,0,0,1-.87-.87Z"/><path class="cls-16" d="M149.86,186.88a.87.87,0,0,1,.87-.87h0a.87.87,0,0,1,.87.87v1.2a.87.87,0,0,1-.87.87h0a.87.87,0,0,1-.87-.87Z"/><path class="cls-16" d="M149.86,182.35a.87.87,0,0,1,.87-.87h0a.87.87,0,0,1,.87.87v1.2a.87.87,0,0,1-.87.88h0a.87.87,0,0,1-.87-.88Z"/><path class="cls-16" d="M149.86,177.83a.87.87,0,0,1,.87-.88h0a.87.87,0,0,1,.87.88V179a.87.87,0,0,1-.87.87h0a.87.87,0,0,1-.87-.87Z"/><path class="cls-16" d="M149.86,173.3a.87.87,0,0,1,.87-.87h0a.87.87,0,0,1,.87.87v1.2a.87.87,0,0,1-.87.87h0a.87.87,0,0,1-.87-.87Z"/><path class="cls-16" d="M149.86,168.77a.87.87,0,0,1,.87-.87h0a.87.87,0,0,1,.87.87V170a.87.87,0,0,1-.87.87h0a.87.87,0,0,1-.87-.87Z"/><path class="cls-16" d="M149.86,164.25a.87.87,0,0,1,.87-.87h0a.87.87,0,0,1,.87.87v1.2a.87.87,0,0,1-.87.87h0a.87.87,0,0,1-.87-.87Z"/><path class="cls-16" d="M149.86,159.72a.87.87,0,0,1,.87-.87h0a.87.87,0,0,1,.87.87v1.21a.87.87,0,0,1-.87.87h0a.87.87,0,0,1-.87-.87Z"/><path class="cls-16" d="M149.86,155.2a.87.87,0,0,1,.87-.88h0a.87.87,0,0,1,.87.88v1.2a.87.87,0,0,1-.87.87h0a.87.87,0,0,1-.87-.87Z"/><path class="cls-16" d="M149.86,150.67a.87.87,0,0,1,.87-.87h0a.87.87,0,0,1,.87.87v1.2a.87.87,0,0,1-.87.87h0a.87.87,0,0,1-.87-.87Z"/><path class="cls-16" d="M149.86,146.14a.87.87,0,0,1,.87-.87h0a.87.87,0,0,1,.87.87v1.21a.87.87,0,0,1-.87.87h0a.87.87,0,0,1-.87-.87Z"/><path class="cls-16" d="M149.86,141.62a.87.87,0,0,1,.87-.87h0a.87.87,0,0,1,.87.87v1.2a.87.87,0,0,1-.87.87h0a.87.87,0,0,1-.87-.87Z"/><path class="cls-16" d="M149.86,137.09a.87.87,0,0,1,.87-.87h0a.87.87,0,0,1,.87.87v1.2a.87.87,0,0,1-.87.88h0a.87.87,0,0,1-.87-.88Z"/><path class="cls-16" d="M149.86,132.57a.87.87,0,0,1,.87-.88h0a.87.87,0,0,1,.87.88v1.2a.87.87,0,0,1-.87.87h0a.87.87,0,0,1-.87-.87Z"/><path class="cls-16" d="M149.86,128a.87.87,0,0,1,.87-.87h0a.87.87,0,0,1,.87.87v1.2a.87.87,0,0,1-.87.87h0a.87.87,0,0,1-.87-.87Z"/><path class="cls-16" d="M149.86,123.51a.87.87,0,0,1,.87-.87h0a.87.87,0,0,1,.87.87v1.21a.87.87,0,0,1-.87.87h0a.87.87,0,0,1-.87-.87Z"/><path class="cls-16" d="M149.86,119a.87.87,0,0,1,.87-.87h0a.87.87,0,0,1,.87.87v1.2a.87.87,0,0,1-.87.87h0a.87.87,0,0,1-.87-.87Z"/><path class="cls-16" d="M149.86,114.46a.87.87,0,0,1,.87-.87h0a.87.87,0,0,1,.87.87v1.2a.88.88,0,0,1-.87.88h0a.88.88,0,0,1-.87-.88Z"/><path class="cls-16" d="M149.86,109.93a.87.87,0,0,1,.87-.87h0a.87.87,0,0,1,.87.87v1.21a.87.87,0,0,1-.87.87h0a.87.87,0,0,1-.87-.87Z"/><path class="cls-16" d="M149.86,105.41a.87.87,0,0,1,.87-.87h0a.87.87,0,0,1,.87.87v1.2a.87.87,0,0,1-.87.87h0a.87.87,0,0,1-.87-.87Z"/><path class="cls-16" d="M149.86,100.88a.87.87,0,0,1,.87-.87h0a.87.87,0,0,1,.87.87v1.21a.87.87,0,0,1-.87.87h0a.87.87,0,0,1-.87-.87Z"/><path class="cls-16" d="M149.86,96.36a.87.87,0,0,1,.87-.87h0a.87.87,0,0,1,.87.87v1.2a.87.87,0,0,1-.87.87h0a.87.87,0,0,1-.87-.87Z"/><path class="cls-16" d="M149.86,91.83a.87.87,0,0,1,.87-.87h0a.87.87,0,0,1,.87.87V93a.87.87,0,0,1-.87.88h0a.87.87,0,0,1-.87-.88Z"/><path class="cls-16" d="M149.86,87.3a.87.87,0,0,1,.87-.87h0a.87.87,0,0,1,.87.87v1.21a.87.87,0,0,1-.87.87h0a.87.87,0,0,1-.87-.87Z"/><path class="cls-16" d="M149.86,82.78a.87.87,0,0,1,.87-.87h0a.87.87,0,0,1,.87.87V84a.87.87,0,0,1-.87.87h0a.87.87,0,0,1-.87-.87Z"/><path class="cls-16" d="M149.86,78.25a.87.87,0,0,1,.87-.87h0a.87.87,0,0,1,.87.87v1.21a.87.87,0,0,1-.87.87h0a.87.87,0,0,1-.87-.87Z"/><path class="cls-16" d="M149.86,73.73a.87.87,0,0,1,.87-.88h0a.87.87,0,0,1,.87.88v1.2a.87.87,0,0,1-.87.87h0a.87.87,0,0,1-.87-.87Z"/><path class="cls-17" d="M101.85,201.3v2c-.43.06-1.29.17-1.66,3-.28,2.09-6.31,1.74-7.55,1.74s-7.27.35-7.54-1.74c-.38-2.85-1.24-3-1.67-3v-2l-.81,0v-3.14s1.3-.18,1.3-1.29.19-9.53,1-12.31a14.83,14.83,0,0,1,2.66-5.07,44,44,0,0,1,5,0,44,44,0,0,1,5,0,14.83,14.83,0,0,1,2.66,5.07c.86,2.78,1,11.19,1,12.31s1.3,1.29,1.3,1.29v3.14Z"/><rect class="cls-18" x="83.43" y="201.3" width="18.43" height="2.04"/><rect class="cls-19" x="82.62" y="198.14" width="20.04" height="3.14"/><path class="cls-20" d="M43,132.63a.49.49,0,0,0-.49-.49h0a.49.49,0,0,0-.5.49v6.91a.49.49,0,0,0,.5.49h0a.49.49,0,0,0,.49-.49Z"/><path class="cls-21" d="M72.89,141.26a.49.49,0,0,0-.49-.49h0a.49.49,0,0,0-.5.49v6.9a.5.5,0,0,0,.5.5h0a.49.49,0,0,0,.49-.5Z"/><path class="cls-22" d="M99.94,146a.5.5,0,0,0-.5-.5h0a.5.5,0,0,0-.49.5v6.9a.49.49,0,0,0,.49.5h0a.5.5,0,0,0,.5-.5Z"/><path class="cls-23" d="M121.83,197.9C116.43,195.09,12,143.31,8.58,141.5S0,134.4,0,128.14v-5.69s26.22,9.32,35,12.45,33.93,10.41,49.15,14.51c6.8,1.84,16.82,1.84,22.26,1.84h15.46Z"/><path class="cls-9" d="M108.58,154.58c-5.7,0-16.21,0-23.34-1.92-16-4.31-42.38-11.93-51.54-15.22-7.32-2.63-26.34-9.39-33.7-12v-3s26.22,9.32,35,12.45,33.93,10.41,49.15,14.51c6.8,1.84,16.82,1.84,22.26,1.84h15.46v3.33Z"/><polygon class="cls-10" points="6.85 127.87 6.85 131.19 27.71 138.94 27.71 135.3 6.85 127.87"/><path class="cls-24" d="M8.58,141.5C5.11,139.68,0,134.4,0,128.14v-2.31c0,6.27,5.11,11.54,8.58,13.36s107.85,53.59,113.25,56.4v2.31C116.43,195.09,12,143.31,8.58,141.5Z"/><path class="cls-25" d="M126.16,41.23S102.41,27.46,96,22.76,86.75,15,86.75,11.87V5.44l43.91,12.84Z"/><path class="cls-13" d="M90.1,8.06q-.22-.9-.45-1.77l41,12-1.56,8c-7.18-2.32-22.72-7.43-28-9.76C94.15,13.4,90.88,11.09,90.1,8.06Z"/><path class="cls-26" d="M87.53,11.09c0,3.13,2.8,6.18,9.23,10.88,5.85,4.27,26,16,29.62,18.15l-.22,1.11S102.41,27.46,96,22.76,86.75,15,86.75,11.87V5.44l.78.23Z"/><path class="cls-15" d="M137.21,287.49V291a10.75,10.75,0,0,1-7.69-3.69v-3.5A10.75,10.75,0,0,0,137.21,287.49Z"/><path class="cls-15" d="M128.26,285.83a21.6,21.6,0,0,1-1.54-2.28v-3.5a21.6,21.6,0,0,0,1.54,2.28Z"/><path class="cls-15" d="M124.37,278.53V275c.35,1,.75,1.92,1.17,2.81v3.5C125.12,280.45,124.72,279.51,124.37,278.53Z"/><path class="cls-16" d="M124.56,250.24a.87.87,0,0,0-.87-.87h0a.87.87,0,0,0-.88.87v1.21a.87.87,0,0,0,.88.87h0a.87.87,0,0,0,.87-.87Z"/><path class="cls-16" d="M124.56,245.72a.87.87,0,0,0-.87-.87h0a.87.87,0,0,0-.88.87v1.2a.87.87,0,0,0,.88.87h0a.87.87,0,0,0,.87-.87Z"/><path class="cls-16" d="M124.56,241.19a.87.87,0,0,0-.87-.87h0a.87.87,0,0,0-.88.87v1.2a.87.87,0,0,0,.88.88h0a.87.87,0,0,0,.87-.88Z"/><path class="cls-16" d="M124.56,236.66a.87.87,0,0,0-.87-.87h0a.87.87,0,0,0-.88.87v1.21a.87.87,0,0,0,.88.87h0a.87.87,0,0,0,.87-.87Z"/><path class="cls-16" d="M124.56,232.14a.87.87,0,0,0-.87-.87h0a.87.87,0,0,0-.88.87v1.2a.87.87,0,0,0,.88.87h0a.87.87,0,0,0,.87-.87Z"/><path class="cls-16" d="M124.56,227.61a.87.87,0,0,0-.87-.87h0a.87.87,0,0,0-.88.87v1.21a.87.87,0,0,0,.88.87h0a.87.87,0,0,0,.87-.87Z"/><path class="cls-16" d="M124.56,223.09a.87.87,0,0,0-.87-.88h0a.87.87,0,0,0-.88.88v1.2a.87.87,0,0,0,.88.87h0a.87.87,0,0,0,.87-.87Z"/><path class="cls-16" d="M124.56,218.56a.87.87,0,0,0-.87-.87h0a.87.87,0,0,0-.88.87v1.2a.87.87,0,0,0,.88.88h0a.87.87,0,0,0,.87-.88Z"/><path class="cls-16" d="M124.56,214a.87.87,0,0,0-.87-.87h0a.87.87,0,0,0-.88.87v1.21a.87.87,0,0,0,.88.87h0a.87.87,0,0,0,.87-.87Z"/><path class="cls-16" d="M124.56,209.51a.87.87,0,0,0-.87-.87h0a.87.87,0,0,0-.88.87v1.2a.87.87,0,0,0,.88.87h0a.87.87,0,0,0,.87-.87Z"/><path class="cls-16" d="M124.56,205a.87.87,0,0,0-.87-.87h0a.87.87,0,0,0-.88.87v1.21a.87.87,0,0,0,.88.87h0a.87.87,0,0,0,.87-.87Z"/><path class="cls-16" d="M124.56,200.46a.87.87,0,0,0-.87-.88h0a.87.87,0,0,0-.88.88v1.2a.87.87,0,0,0,.88.87h0a.87.87,0,0,0,.87-.87Z"/><path class="cls-16" d="M124.56,195.93a.87.87,0,0,0-.87-.87h0a.87.87,0,0,0-.88.87v1.2a.87.87,0,0,0,.88.87h0a.87.87,0,0,0,.87-.87Z"/><path class="cls-16" d="M124.56,191.4a.87.87,0,0,0-.87-.87h0a.87.87,0,0,0-.88.87v1.21a.87.87,0,0,0,.88.87h0a.87.87,0,0,0,.87-.87Z"/><path class="cls-16" d="M124.56,186.88a.87.87,0,0,0-.87-.87h0a.87.87,0,0,0-.88.87v1.2a.87.87,0,0,0,.88.87h0a.87.87,0,0,0,.87-.87Z"/><path class="cls-16" d="M124.56,182.35a.87.87,0,0,0-.87-.87h0a.87.87,0,0,0-.88.87v1.2a.87.87,0,0,0,.88.88h0a.87.87,0,0,0,.87-.88Z"/><path class="cls-16" d="M124.56,177.83a.87.87,0,0,0-.87-.88h0a.87.87,0,0,0-.88.88V179a.87.87,0,0,0,.88.87h0a.87.87,0,0,0,.87-.87Z"/><path class="cls-16" d="M124.56,173.3a.87.87,0,0,0-.87-.87h0a.87.87,0,0,0-.88.87v1.2a.87.87,0,0,0,.88.87h0a.87.87,0,0,0,.87-.87Z"/><path class="cls-16" d="M124.56,168.77a.87.87,0,0,0-.87-.87h0a.87.87,0,0,0-.88.87V170a.87.87,0,0,0,.88.87h0a.87.87,0,0,0,.87-.87Z"/><path class="cls-16" d="M124.56,164.25a.87.87,0,0,0-.87-.87h0a.87.87,0,0,0-.88.87v1.2a.87.87,0,0,0,.88.87h0a.87.87,0,0,0,.87-.87Z"/><path class="cls-16" d="M124.56,159.72a.87.87,0,0,0-.87-.87h0a.87.87,0,0,0-.88.87v1.21a.87.87,0,0,0,.88.87h0a.87.87,0,0,0,.87-.87Z"/><path class="cls-16" d="M124.56,155.2a.87.87,0,0,0-.87-.88h0a.87.87,0,0,0-.88.88v1.2a.87.87,0,0,0,.88.87h0a.87.87,0,0,0,.87-.87Z"/><path class="cls-16" d="M124.56,150.67a.87.87,0,0,0-.87-.87h0a.87.87,0,0,0-.88.87v1.2a.87.87,0,0,0,.88.87h0a.87.87,0,0,0,.87-.87Z"/><path class="cls-16" d="M124.56,146.14a.87.87,0,0,0-.87-.87h0a.87.87,0,0,0-.88.87v1.21a.87.87,0,0,0,.88.87h0a.87.87,0,0,0,.87-.87Z"/><path class="cls-16" d="M124.56,141.62a.87.87,0,0,0-.87-.87h0a.87.87,0,0,0-.88.87v1.2a.87.87,0,0,0,.88.87h0a.87.87,0,0,0,.87-.87Z"/><path class="cls-16" d="M124.56,137.09a.87.87,0,0,0-.87-.87h0a.87.87,0,0,0-.88.87v1.2a.87.87,0,0,0,.88.88h0a.87.87,0,0,0,.87-.88Z"/><path class="cls-16" d="M124.56,132.57a.87.87,0,0,0-.87-.88h0a.87.87,0,0,0-.88.88v1.2a.87.87,0,0,0,.88.87h0a.87.87,0,0,0,.87-.87Z"/><path class="cls-16" d="M124.56,128a.87.87,0,0,0-.87-.87h0a.87.87,0,0,0-.88.87v1.2a.87.87,0,0,0,.88.87h0a.87.87,0,0,0,.87-.87Z"/><path class="cls-16" d="M124.56,123.51a.87.87,0,0,0-.87-.87h0a.87.87,0,0,0-.88.87v1.21a.87.87,0,0,0,.88.87h0a.87.87,0,0,0,.87-.87Z"/><path class="cls-16" d="M124.56,119a.87.87,0,0,0-.87-.87h0a.87.87,0,0,0-.88.87v1.2a.87.87,0,0,0,.88.87h0a.87.87,0,0,0,.87-.87Z"/><path class="cls-16" d="M124.56,114.46a.87.87,0,0,0-.87-.87h0a.87.87,0,0,0-.88.87v1.2a.88.88,0,0,0,.88.88h0a.88.88,0,0,0,.87-.88Z"/><path class="cls-16" d="M124.56,109.93a.87.87,0,0,0-.87-.87h0a.87.87,0,0,0-.88.87v1.21a.87.87,0,0,0,.88.87h0a.87.87,0,0,0,.87-.87Z"/><path class="cls-16" d="M124.56,105.41a.87.87,0,0,0-.87-.87h0a.87.87,0,0,0-.88.87v1.2a.87.87,0,0,0,.88.87h0a.87.87,0,0,0,.87-.87Z"/><path class="cls-16" d="M124.56,100.88a.87.87,0,0,0-.87-.87h0a.87.87,0,0,0-.88.87v1.21a.87.87,0,0,0,.88.87h0a.87.87,0,0,0,.87-.87Z"/><path class="cls-16" d="M124.56,96.36a.87.87,0,0,0-.87-.87h0a.87.87,0,0,0-.88.87v1.2a.87.87,0,0,0,.88.87h0a.87.87,0,0,0,.87-.87Z"/><path class="cls-16" d="M124.56,91.83a.87.87,0,0,0-.87-.87h0a.87.87,0,0,0-.88.87V93a.87.87,0,0,0,.88.88h0a.87.87,0,0,0,.87-.88Z"/><path class="cls-16" d="M124.56,87.3a.87.87,0,0,0-.87-.87h0a.87.87,0,0,0-.88.87v1.21a.87.87,0,0,0,.88.87h0a.87.87,0,0,0,.87-.87Z"/><path class="cls-16" d="M124.56,82.78a.87.87,0,0,0-.87-.87h0a.87.87,0,0,0-.88.87V84a.87.87,0,0,0,.88.87h0a.87.87,0,0,0,.87-.87Z"/><path class="cls-16" d="M124.56,78.25a.87.87,0,0,0-.87-.87h0a.87.87,0,0,0-.88.87v1.21a.87.87,0,0,0,.88.87h0a.87.87,0,0,0,.87-.87Z"/><path class="cls-16" d="M124.56,73.73a.87.87,0,0,0-.87-.88h0a.87.87,0,0,0-.88.88v1.2a.87.87,0,0,0,.88.87h0a.87.87,0,0,0,.87-.87Z"/></g></g></svg>