<svg width="52" height="46" viewBox="0 0 52 46" fill="none" xmlns="http://www.w3.org/2000/svg">
<path d="M25.9992 8C21.5928 8 18 11.5937 18 16.0001C18 16.2653 18.1052 16.5196 18.2926 16.7071C18.48 16.8947 18.7342 17.0002 18.9993 17.0004C19.1307 17.0004 19.2608 16.9746 19.3822 16.9243C19.5035 16.874 19.6138 16.8004 19.7067 16.7075C19.7996 16.6146 19.8733 16.5043 19.9235 16.3829C19.9738 16.2616 19.9996 16.1315 19.9996 16.0001C19.9996 12.6746 22.6737 10.0005 25.9992 10.0005C29.3248 10.0005 31.9998 12.6746 31.9998 16.0001C31.9998 18.1259 30.9013 19.9805 29.2436 21.0484C27.3116 22.2929 24.9999 24.2013 24.9999 27.0001C24.9998 27.2652 25.1051 27.5195 25.2925 27.7071C25.4799 27.8947 25.7341 28.0001 25.9992 28.0003C26.1306 28.0003 26.2607 27.9745 26.382 27.9242C26.5034 27.874 26.6137 27.8003 26.7066 27.7074C26.7995 27.6145 26.8731 27.5042 26.9234 27.3829C26.9737 27.2615 26.9995 27.1314 26.9995 27.0001C26.9995 25.3806 28.5952 23.8451 30.3269 22.7296C32.5365 21.3062 33.9993 18.8168 33.9993 16.0001C33.9993 11.5937 30.4056 8 25.9992 8Z" fill="#1B1B1B"/>
<path d="M3.99361 0C1.7986 0 0 1.7977 0 3.9927V36.0061C0 38.2011 1.7986 39.9997 3.99361 39.9997H17.0005C17.1318 39.9997 17.2619 39.9739 17.3833 39.9236C17.5047 39.8734 17.6149 39.7997 17.7078 39.7068C17.8007 39.6139 17.8744 39.5036 17.9247 39.3823C17.9749 39.2609 18.0008 39.1308 18.0007 38.9994C18.0005 38.7343 17.8951 38.4801 17.7075 38.2927C17.5199 38.1053 17.2656 38.0001 17.0005 38.0001H3.99361C2.872 38.0001 2.00049 37.1277 2.00049 36.0061V3.9927C2.00049 2.8711 2.872 1.9996 3.99361 1.9996H48.0072C49.1288 1.9996 50.0003 2.8711 50.0003 3.9927V36.0061C50.0003 37.1277 49.1288 38.0001 48.0072 38.0001H25.0006C24.8692 38 24.7391 38.0258 24.6176 38.076C24.4962 38.1261 24.3858 38.1998 24.2929 38.2926L18.2932 44.2923C18.2003 44.3851 18.1266 44.4954 18.0763 44.6167C18.0261 44.7381 18.0002 44.8682 18.0002 44.9995C18.0002 45.1309 18.0261 45.261 18.0763 45.3823C18.1266 45.5037 18.2003 45.6139 18.2932 45.7068C18.3861 45.7997 18.4964 45.8734 18.6177 45.9237C18.7391 45.974 18.8691 45.9999 19.0005 45.9999C19.1319 45.9999 19.2619 45.974 19.3833 45.9237C19.5047 45.8734 19.6149 45.7997 19.7078 45.7068L25.4149 39.9997H48.0072C50.2022 39.9997 52.0008 38.2011 52.0008 36.0061V3.9927C52.0008 1.7977 50.2022 0 48.0072 0H3.99361Z" fill="#1B1B1B"/>
<path d="M27 31C27 31.2652 26.8946 31.5196 26.7071 31.7071C26.5195 31.8946 26.2652 32 26 32C25.7347 32 25.4804 31.8946 25.2928 31.7071C25.1053 31.5196 25 31.2652 25 31C25 30.8687 25.0258 30.7386 25.0761 30.6173C25.1263 30.496 25.2 30.3858 25.2928 30.2929C25.3857 30.2 25.4959 30.1264 25.6173 30.0761C25.7386 30.0259 25.8686 30 26 30C26.2652 30 26.5195 30.1054 26.7071 30.2929C26.8946 30.4804 27 30.7348 27 31Z" fill="#1B1B1B"/>
</svg>
