<svg height="100" width="100" background-color="#e9ebed" color="#e9ebed" xmlns="http://www.w3.org/2000/svg"><g fill="#e9ebed"><path d="m36.277344 13.296875c-6.698345 0-12.185547 5.471182-12.185547 12.150391 0 2.587921.825588 4.993381 2.224609 6.970703l8.472656 11.49414c1.186758 1.550367 1.97808 1.255555 2.964844-.08203l9.347656-12.75c.188829-.341556.335678-.702835.464844-1.074219.576891-1.409036.896485-2.949875.896485-4.558593 0-6.679209-5.487202-12.15039-12.185547-12.150391zm0 5.693359c3.606864 0 6.476562 2.86047 6.476562 6.457032 0 3.596559-2.869698 6.458984-6.476562 6.458984-3.606867 0-6.476563-2.862425-6.476563-6.458984 0-3.596562 2.869696-6.457032 6.476563-6.457032z"/><path d="m37.179688.17773438c-9.530235 0-19.061096 3.62359472-26.308594 10.87109362-14.4949971 14.494996-14.4949971 38.122192 0 52.617188 13.568165 13.568166 35.097661 14.366387 49.685547 2.527343l3.576171 3.576172a3.9563019 5.9576969 45 0 0 .646485 3.613281l25.951172 25.951172a3.9563019 5.9576969 45 0 0 7.009765-1.416015 3.9563019 5.9576969 45 0 0 1.416016-7.009766l-25.951172-25.951172a3.9563019 5.9576969 45 0 0 -3.615234-.646484l-3.576172-3.576172c11.839376-14.587808 11.042854-36.117302-2.525391-49.685547-7.247498-7.2474989-16.778361-10.87109362-26.308593-10.87109362zm0 8.21679682c7.397091.0000001 14.795171 2.8342338 20.46289 8.5019528 11.335439 11.33544 11.335439 29.588389 0 40.923828s-29.588388 11.335439-40.923828 0c-11.3354391-11.335439-11.3354391-29.588388 0-40.923828 5.66772-5.66772 13.063845-8.5019528 20.460938-8.5019528z"/><path d="m29.726562 52.002949-10.287109 3.376953c4.483597 4.330238 10.220001 6.735205 16.101563 7.119141z"/><path d="m62.492188 41.252949-25.476563 8.359375 6.705078 12.101562c3.493214-.920255 6.851688-2.593684 9.828125-5.054687 4.930784-4.076915 7.941042-9.583964 8.94336-15.40625z"/><path d="m11.673828 34.379902c-.489775 4.966216.467909 10.074036 2.939453 14.650391l9.521485-3.123047z"/><path d="m60.001953 25.145527-5.302734 10.732422 7.916015-2.595703c-.399238-2.794919-1.269481-5.546733-2.613281-8.136719z"/></g></svg>